<?xml version="1.0" encoding="UTF-8"?>
<svg xmlns="http://www.w3.org/2000/svg" xmlns:xlink="http://www.w3.org/1999/xlink" width="150px" height="150px" viewBox="0 0 239 239" version="1.1">
<g id="surface1">
<path style="fill-rule:nonzero;fill:rgb(88.627451%,46.27451%,10.588235%);fill-opacity:1;stroke-width:1;stroke-linecap:round;stroke-linejoin:round;stroke:rgb(88.627451%,46.27451%,10.588235%);stroke-opacity:1;stroke-miterlimit:4;" d="M 274.098895 35.49778 L 174.598882 109.398983 L 193.001281 65.798732 Z M 274.098895 35.49778 " transform="matrix(0.750157,0,0,0.750157,0,0)"/>
<path style="fill-rule:nonzero;fill:rgb(89.411765%,46.27451%,10.588235%);fill-opacity:1;stroke-width:1;stroke-linecap:round;stroke-linejoin:round;stroke:rgb(89.411765%,46.27451%,10.588235%);stroke-opacity:1;stroke-miterlimit:4;" d="M 44.402167 35.49778 L 143.100265 110.101961 L 125.598719 65.798732 Z M 44.402167 35.49778 " transform="matrix(0.750157,0,0,0.750157,0,0)"/>
<path style="fill-rule:nonzero;fill:rgb(89.411765%,46.27451%,10.588235%);fill-opacity:1;stroke-width:1;stroke-linecap:round;stroke-linejoin:round;stroke:rgb(89.411765%,46.27451%,10.588235%);stroke-opacity:1;stroke-miterlimit:4;" d="M 238.299095 206.800477 L 211.799431 247.401357 L 268.501108 263.002259 L 284.799781 207.70133 Z M 238.299095 206.800477 " transform="matrix(0.750157,0,0,0.750157,0,0)"/>
<path style="fill-rule:nonzero;fill:rgb(89.411765%,46.27451%,10.588235%);fill-opacity:1;stroke-width:1;stroke-linecap:round;stroke-linejoin:round;stroke:rgb(89.411765%,46.27451%,10.588235%);stroke-opacity:1;stroke-miterlimit:4;" d="M 33.899157 207.70133 L 50.098892 263.002259 L 106.800569 247.401357 L 80.300905 206.800477 Z M 33.899157 207.70133 " transform="matrix(0.750157,0,0,0.750157,0,0)"/>
<path style="fill-rule:nonzero;fill:rgb(89.411765%,46.27451%,10.588235%);fill-opacity:1;stroke-width:1;stroke-linecap:round;stroke-linejoin:round;stroke:rgb(89.411765%,46.27451%,10.588235%);stroke-opacity:1;stroke-miterlimit:4;" d="M 103.598114 138.200248 L 87.799336 162.101497 L 144.100056 164.600974 L 142.100474 104.098009 Z M 103.598114 138.200248 " transform="matrix(0.750157,0,0,0.750157,0,0)"/>
<path style="fill-rule:nonzero;fill:rgb(89.411765%,46.27451%,10.588235%);fill-opacity:1;stroke-width:1;stroke-linecap:round;stroke-linejoin:round;stroke:rgb(89.411765%,46.27451%,10.588235%);stroke-opacity:1;stroke-miterlimit:4;" d="M 214.897741 138.200248 L 175.900693 103.400239 L 174.598882 164.600974 L 230.800664 162.101497 Z M 214.897741 138.200248 " transform="matrix(0.750157,0,0,0.750157,0,0)"/>
<path style="fill-rule:nonzero;fill:rgb(89.411765%,46.27451%,10.588235%);fill-opacity:1;stroke-width:1;stroke-linecap:round;stroke-linejoin:round;stroke:rgb(89.411765%,46.27451%,10.588235%);stroke-opacity:1;stroke-miterlimit:4;" d="M 106.800569 247.401357 L 140.600788 230.899601 L 111.398565 208.102288 Z M 106.800569 247.401357 " transform="matrix(0.750157,0,0,0.750157,0,0)"/>
<path style="fill-rule:nonzero;fill:rgb(89.411765%,46.27451%,10.588235%);fill-opacity:1;stroke-width:1;stroke-linecap:round;stroke-linejoin:round;stroke:rgb(89.411765%,46.27451%,10.588235%);stroke-opacity:1;stroke-miterlimit:4;" d="M 177.900275 230.899601 L 211.799431 247.401357 L 207.102497 208.102288 Z M 177.900275 230.899601 " transform="matrix(0.750157,0,0,0.750157,0,0)"/>
<path style="fill-rule:nonzero;fill:rgb(84.313725%,75.686275%,70.196078%);fill-opacity:1;stroke-width:1;stroke-linecap:round;stroke-linejoin:round;stroke:rgb(84.313725%,75.686275%,70.196078%);stroke-opacity:1;stroke-miterlimit:4;" d="M 211.799431 247.401357 L 177.900275 230.899601 L 180.597627 252.999144 L 180.300814 262.299281 Z M 211.799431 247.401357 " transform="matrix(0.750157,0,0,0.750157,0,0)"/>
<path style="fill-rule:nonzero;fill:rgb(84.313725%,75.686275%,70.196078%);fill-opacity:1;stroke-width:1;stroke-linecap:round;stroke-linejoin:round;stroke:rgb(84.313725%,75.686275%,70.196078%);stroke-opacity:1;stroke-miterlimit:4;" d="M 106.800569 247.401357 L 138.299186 262.299281 L 138.101311 252.999144 L 140.600788 230.899601 Z M 106.800569 247.401357 " transform="matrix(0.750157,0,0,0.750157,0,0)"/>
<path style="fill-rule:nonzero;fill:rgb(13.72549%,20.392157%,27.843137%);fill-opacity:1;stroke-width:1;stroke-linecap:round;stroke-linejoin:round;stroke:rgb(13.72549%,20.392157%,27.843137%);stroke-opacity:1;stroke-miterlimit:4;" d="M 138.799081 193.501177 L 110.601857 185.20083 L 130.498735 176.098568 Z M 138.799081 193.501177 " transform="matrix(0.750157,0,0,0.750157,0,0)"/>
<path style="fill-rule:nonzero;fill:rgb(13.72549%,20.392157%,27.843137%);fill-opacity:1;stroke-width:1;stroke-linecap:round;stroke-linejoin:round;stroke:rgb(13.72549%,20.392157%,27.843137%);stroke-opacity:1;stroke-miterlimit:4;" d="M 179.701981 193.501177 L 188.002327 176.098568 L 207.998143 185.20083 Z M 179.701981 193.501177 " transform="matrix(0.750157,0,0,0.750157,0,0)"/>
<path style="fill-rule:nonzero;fill:rgb(80.392157%,38.039216%,8.627451%);fill-opacity:1;stroke-width:1;stroke-linecap:round;stroke-linejoin:round;stroke:rgb(80.392157%,38.039216%,8.627451%);stroke-opacity:1;stroke-miterlimit:4;" d="M 106.800569 247.401357 L 111.601647 206.800477 L 80.300905 207.70133 Z M 106.800569 247.401357 " transform="matrix(0.750157,0,0,0.750157,0,0)"/>
<path style="fill-rule:nonzero;fill:rgb(80.392157%,38.039216%,8.627451%);fill-opacity:1;stroke-width:1;stroke-linecap:round;stroke-linejoin:round;stroke:rgb(80.392157%,38.039216%,8.627451%);stroke-opacity:1;stroke-miterlimit:4;" d="M 206.998353 206.800477 L 211.799431 247.401357 L 238.299095 207.70133 Z M 206.998353 206.800477 " transform="matrix(0.750157,0,0,0.750157,0,0)"/>
<path style="fill-rule:nonzero;fill:rgb(80.392157%,38.039216%,8.627451%);fill-opacity:1;stroke-width:1;stroke-linecap:round;stroke-linejoin:round;stroke:rgb(80.392157%,38.039216%,8.627451%);stroke-opacity:1;stroke-miterlimit:4;" d="M 230.800664 162.101497 L 174.598882 164.600974 L 179.800919 193.501177 L 188.101265 176.098568 L 208.102288 185.20083 Z M 230.800664 162.101497 " transform="matrix(0.750157,0,0,0.750157,0,0)"/>
<path style="fill-rule:nonzero;fill:rgb(80.392157%,38.039216%,8.627451%);fill-opacity:1;stroke-width:1;stroke-linecap:round;stroke-linejoin:round;stroke:rgb(80.392157%,38.039216%,8.627451%);stroke-opacity:1;stroke-miterlimit:4;" d="M 110.601857 185.20083 L 130.597673 176.098568 L 138.799081 193.501177 L 144.100056 164.600974 L 87.799336 162.101497 Z M 110.601857 185.20083 " transform="matrix(0.750157,0,0,0.750157,0,0)"/>
<path style="fill-rule:nonzero;fill:rgb(89.411765%,45.882353%,12.156863%);fill-opacity:1;stroke-width:1;stroke-linecap:round;stroke-linejoin:round;stroke:rgb(89.411765%,45.882353%,12.156863%);stroke-opacity:1;stroke-miterlimit:4;" d="M 87.799336 162.101497 L 111.398565 208.102288 L 110.601857 185.20083 Z M 87.799336 162.101497 " transform="matrix(0.750157,0,0,0.750157,0,0)"/>
<path style="fill-rule:nonzero;fill:rgb(89.411765%,45.882353%,12.156863%);fill-opacity:1;stroke-width:1;stroke-linecap:round;stroke-linejoin:round;stroke:rgb(89.411765%,45.882353%,12.156863%);stroke-opacity:1;stroke-miterlimit:4;" d="M 208.102288 185.20083 L 207.102497 208.102288 L 230.800664 162.101497 Z M 208.102288 185.20083 " transform="matrix(0.750157,0,0,0.750157,0,0)"/>
<path style="fill-rule:nonzero;fill:rgb(89.411765%,45.882353%,12.156863%);fill-opacity:1;stroke-width:1;stroke-linecap:round;stroke-linejoin:round;stroke:rgb(89.411765%,45.882353%,12.156863%);stroke-opacity:1;stroke-miterlimit:4;" d="M 144.100056 164.600974 L 138.799081 193.501177 L 145.401867 227.598209 L 146.901553 182.701353 Z M 144.100056 164.600974 " transform="matrix(0.750157,0,0,0.750157,0,0)"/>
<path style="fill-rule:nonzero;fill:rgb(89.411765%,45.882353%,12.156863%);fill-opacity:1;stroke-width:1;stroke-linecap:round;stroke-linejoin:round;stroke:rgb(89.411765%,45.882353%,12.156863%);stroke-opacity:1;stroke-miterlimit:4;" d="M 174.598882 164.600974 L 171.90153 182.602416 L 173.099196 227.598209 L 179.800919 193.501177 Z M 174.598882 164.600974 " transform="matrix(0.750157,0,0,0.750157,0,0)"/>
<path style="fill-rule:nonzero;fill:rgb(96.470588%,52.156863%,10.588235%);fill-opacity:1;stroke-width:1;stroke-linecap:round;stroke-linejoin:round;stroke:rgb(96.470588%,52.156863%,10.588235%);stroke-opacity:1;stroke-miterlimit:4;" d="M 179.800919 193.501177 L 173.099196 227.598209 L 177.900275 230.899601 L 207.102497 208.102288 L 208.102288 185.20083 Z M 179.800919 193.501177 " transform="matrix(0.750157,0,0,0.750157,0,0)"/>
<path style="fill-rule:nonzero;fill:rgb(96.470588%,52.156863%,10.588235%);fill-opacity:1;stroke-width:1;stroke-linecap:round;stroke-linejoin:round;stroke:rgb(96.470588%,52.156863%,10.588235%);stroke-opacity:1;stroke-miterlimit:4;" d="M 110.601857 185.20083 L 111.398565 208.102288 L 140.600788 230.899601 L 145.401867 227.598209 L 138.799081 193.501177 Z M 110.601857 185.20083 " transform="matrix(0.750157,0,0,0.750157,0,0)"/>
<path style="fill-rule:nonzero;fill:rgb(75.294118%,67.843137%,61.960784%);fill-opacity:1;stroke-width:1;stroke-linecap:round;stroke-linejoin:round;stroke:rgb(75.294118%,67.843137%,61.960784%);stroke-opacity:1;stroke-miterlimit:4;" d="M 180.300814 262.299281 L 180.597627 252.999144 L 178.09815 250.801687 L 140.397705 250.801687 L 138.101311 252.999144 L 138.299186 262.299281 L 106.800569 247.401357 L 117.798268 256.399474 L 140.100892 271.901438 L 178.40017 271.901438 L 200.801732 256.399474 L 211.799431 247.401357 Z M 180.300814 262.299281 " transform="matrix(0.750157,0,0,0.750157,0,0)"/>
<path style="fill-rule:nonzero;fill:rgb(8.627451%,8.627451%,8.627451%);fill-opacity:1;stroke-width:1;stroke-linecap:round;stroke-linejoin:round;stroke:rgb(8.627451%,8.627451%,8.627451%);stroke-opacity:1;stroke-miterlimit:4;" d="M 177.900275 230.899601 L 173.099196 227.598209 L 145.401867 227.598209 L 140.600788 230.899601 L 138.101311 252.999144 L 140.397705 250.801687 L 178.09815 250.801687 L 180.597627 252.999144 Z M 177.900275 230.899601 " transform="matrix(0.750157,0,0,0.750157,0,0)"/>
<path style="fill-rule:nonzero;fill:rgb(46.27451%,23.921569%,8.627451%);fill-opacity:1;stroke-width:1;stroke-linecap:round;stroke-linejoin:round;stroke:rgb(46.27451%,23.921569%,8.627451%);stroke-opacity:1;stroke-miterlimit:4;" d="M 278.301141 114.200062 L 286.799363 73.401308 L 274.098895 35.49778 L 177.900275 106.899506 L 214.897741 138.200248 L 267.199297 153.49913 L 278.801036 140.001955 L 273.802082 136.398542 L 281.800409 129.097986 L 275.598581 124.302115 L 283.602115 118.199225 Z M 278.301141 114.200062 " transform="matrix(0.750157,0,0,0.750157,0,0)"/>
<path style="fill-rule:nonzero;fill:rgb(46.27451%,23.921569%,8.627451%);fill-opacity:1;stroke-width:1;stroke-linecap:round;stroke-linejoin:round;stroke:rgb(46.27451%,23.921569%,8.627451%);stroke-opacity:1;stroke-miterlimit:4;" d="M 31.800637 73.401308 L 40.298859 114.200062 L 34.898947 118.199225 L 42.902481 124.302115 L 36.799591 129.097986 L 44.797918 136.398542 L 39.798964 140.001955 L 51.301765 153.49913 L 103.598114 138.200248 L 140.600788 106.899506 L 44.402167 35.49778 Z M 31.800637 73.401308 " transform="matrix(0.750157,0,0,0.750157,0,0)"/>
<path style="fill-rule:nonzero;fill:rgb(96.470588%,52.156863%,10.588235%);fill-opacity:1;stroke-width:1;stroke-linecap:round;stroke-linejoin:round;stroke:rgb(96.470588%,52.156863%,10.588235%);stroke-opacity:1;stroke-miterlimit:4;" d="M 267.199297 153.49913 L 214.897741 138.200248 L 230.800664 162.101497 L 207.102497 208.102288 L 238.299095 207.70133 L 284.799781 207.70133 Z M 267.199297 153.49913 " transform="matrix(0.750157,0,0,0.750157,0,0)"/>
<path style="fill-rule:nonzero;fill:rgb(96.470588%,52.156863%,10.588235%);fill-opacity:1;stroke-width:1;stroke-linecap:round;stroke-linejoin:round;stroke:rgb(96.470588%,52.156863%,10.588235%);stroke-opacity:1;stroke-miterlimit:4;" d="M 103.598114 138.200248 L 51.301765 153.49913 L 33.899157 207.70133 L 80.300905 207.70133 L 111.398565 208.102288 L 87.799336 162.101497 Z M 103.598114 138.200248 " transform="matrix(0.750157,0,0,0.750157,0,0)"/>
<path style="fill-rule:nonzero;fill:rgb(96.470588%,52.156863%,10.588235%);fill-opacity:1;stroke-width:1;stroke-linecap:round;stroke-linejoin:round;stroke:rgb(96.470588%,52.156863%,10.588235%);stroke-opacity:1;stroke-miterlimit:4;" d="M 174.598882 164.600974 L 177.900275 106.899506 L 193.100219 65.798732 L 125.598719 65.798732 L 140.600788 106.899506 L 144.100056 164.600974 L 145.297722 182.800291 L 145.401867 227.598209 L 173.099196 227.598209 L 173.302278 182.800291 Z M 174.598882 164.600974 " transform="matrix(0.750157,0,0,0.750157,0,0)"/>
</g>
</svg>
